PathFileType	4	(X/Y/Z)	C:\Users\Biomechanik\SynologyDrive\AlexP\Athlete_03\Athlete_3_25_03_31\Deadlift_bw_01\marker_experimental.trc
DataRate	CameraRate	NumFrames	NumMarkers	Units	OrigDataRate	OrigDataStartFrame	OrigNumFrames
200.000000	200.000000	4	55	mm	200.000000	381	1527
Frame#	Time	BL			BR			GLAB			RFHD			LFHD			C7			T6			SPINMOL			SPINM2			SPINM3			T12			BELTOL			BELT2			BELT3			SACROL			SACR2			SACR3			LTHOL			LTH2			LTH3			LSHAOL			LSHA2			LSHA3			LHEE			LTOE			LM5			RTHOL			RTH2			RTH3			RSHAOL			RSHA2			RSHA3			RHEE			RTOE			RM5			STRN			XIPH			LACR			LUAOL			LUA2			LUA3			LLAOL			LLA2			LLA3			LWRR			LWRU			RACR			RUAOL			RUA2			RUA3			RLAOL			RLA2			RLA3			RWRR			RWRU			
		X1	Y1	Z1	X2	Y2	Z2	X3	Y3	Z3	X4	Y4	Z4	X5	Y5	Z5	X6	Y6	Z6	X7	Y7	Z7	X8	Y8	Z8	X9	Y9	Z9	X10	Y10	Z10	X11	Y11	Z11	X12	Y12	Z12	X13	Y13	Z13	X14	Y14	Z14	X15	Y15	Z15	X16	Y16	Z16	X17	Y17	Z17	X18	Y18	Z18	X19	Y19	Z19	X20	Y20	Z20	X21	Y21	Z21	X22	Y22	Z22	X23	Y23	Z23	X24	Y24	Z24	X25	Y25	Z25	X26	Y26	Z26	X27	Y27	Z27	X28	Y28	Z28	X29	Y29	Z29	X30	Y30	Z30	X31	Y31	Z31	X32	Y32	Z32	X33	Y33	Z33	X34	Y34	Z34	X35	Y35	Z35	X36	Y36	Z36	X37	Y37	Z37	X38	Y38	Z38	X39	Y39	Z39	X40	Y40	Z40	X41	Y41	Z41	X42	Y42	Z42	X43	Y43	Z43	X44	Y44	Z44	X45	Y45	Z45	X46	Y46	Z46	X47	Y47	Z47	X48	Y48	Z48	X49	Y49	Z49	X50	Y50	Z50	X51	Y51	Z51	X52	Y52	Z52	X53	Y53	Z53	X54	Y54	Z54	X55	Y55	Z55	

382	1.905	1214.247802734375	39.250759124756	-2269.224609375	1226.8583984375	29.84785842895509	-248.7828216552734	607.2653198242188	1067.703979492188	-1194.696166992188	563.5488891601562	1102.396728515625	-1131.445068359375	568.6318969726562	1098.570068359375	-1267.016845703125	342.3701782226562	1002.715881347656	-1201.2265625	206.9617919921875	926.4455566406251	-1203.298461914062	181.8062591552734	910.8976440429689	-1226.443359375	171.9563293457031	905.9514770507814	-1177.517456054688	129.8766174316406	871.1046142578126	-1215.402221679688	90.59232330322266	834.9316406250001	-1213.44091796875	52.53004455566406	841.5615234375001	-1225.3466796875	52.77505493164062	836.4002685546876	-1174.429931640625	3.004457950592041	803.0488281250001	-1204.025756835938	-93.54150390625	699.5761718750001	-1229.481689453125	-89.0728759765625	694.7946166992189	-1178.5322265625	-115.7136077880859	641.1224975585939	-1206.880737304688	144.3968048095703	464.4887084960939	-1429.193359375	172.9775238037109	394.1924133300782	-1406.980224609375	198.0352172851562	434.614227294922	-1424.673095703125	259.4022216796875	278.5981445312501	-1442.667236328125	189.6482543945312	242.3429718017579	-1429.193237304688	235.7514038085938	222.7391662597657	-1430.618041992188	78.95004272460938	71.34650421142587	-1320.1669921875	294.9102478027344	46.6439743041993	-1328.858520507812	243.6715087890625	29.65692329406747	-1430.703002929688	144.3486328125	456.0243225097657	-1000.186462402344	218.1945648193359	481.8399353027344	-981.8509521484375	204.1763305664062	438.1222229003907	-1002.242553710938	260.9788513183594	295.5724792480469	-991.9512329101562	260.1906127929688	217.3223724365235	-1001.457153320312	222.1316528320312	248.6727294921876	-1005.569091796875	79.73182678222656	66.36920166015632	-1117.550170898438	289.8841857910156	45.92247390747077	-1106.05810546875	237.3092956542969	39.89837265014655	-1004.25146484375	428.6234130859375	827.1201171875001	-1207.119750976562	350.879150390625	701.8611450195314	-1220.371704101562	393.9642944335938	903.3089599609376	-1370.975341796875	385.1651611328125	762.2462158203126	-1468.901611328125	373.8335266113281	704.6420898437501	-1498.182983398438	399.7776794433594	700.3072509765626	-1454.35302734375	384.4259033203125	497.754119873047	-1515.873901367188	334.97119140625	441.5975341796876	-1541.512939453125	379.4728393554688	436.3971557617189	-1518.451293945312	376.7205200195312	329.3379516601564	-1519.571411132812	364.4794616699219	330.3824157714845	-1441.546142578125	405.4200439453125	894.7424316406251	-1045.191772460938	394.4364624023438	754.6117553710939	-961.5631713867188	408.880859375	691.6568603515626	-968.291259765625	383.7564697265625	700.3447265625	-923.5784912109375	381.6527404785156	476.5164794921876	-919.4661865234375	427.7740783691406	413.3601684570313	-935.308349609375	380.8586730957031	413.5929565429688	-919.1224365234375	399.9602966308594	323.1718750000001	-929.1069946289062	375.2382202148438	314.7636108398438	-1005.739562988281	
383	1.91	1214.248046875	39.25017547607436	-2269.224609375	1226.858154296875	29.84741401672365	-248.7825775146484	606.7530517578125	1068.079833984375	-1194.6533203125	562.9938354492188	1102.726318359375	-1131.412963867188	568.0888061523438	1098.899047851562	-1266.984985351562	341.9713439941406	1002.862182617188	-1201.189453125	206.6149749755859	926.5548706054689	-1203.263305664062	181.4649047851562	911.0000000000001	-1226.407836914062	171.6165466308594	906.0521850585939	-1177.481323242188	129.5457916259766	871.1919555664064	-1215.360473632812	90.264404296875	835.0126342773439	-1213.425415039062	52.22525405883789	841.6726684570314	-1225.310546875	52.46858596801758	836.5159912109376	-1174.400146484375	2.699663877487183	803.1539916992189	-1203.980834960938	-93.84186553955078	699.6392822265626	-1229.434814453125	-89.36858367919922	694.8602905273439	-1178.48681640625	-116.0012817382812	641.1835937500001	-1206.840698242188	144.1681213378906	464.590789794922	-1429.1376953125	172.7449035644531	394.3171691894532	-1406.9267578125	197.8019104003906	434.740203857422	-1424.608154296875	259.2572631835938	278.676727294922	-1442.609619140625	189.5295562744141	242.372283935547	-1429.139404296875	235.6443176269531	222.8023071289063	-1430.563232421875	78.93520355224609	71.31568908691415	-1320.163696289062	294.9027709960938	46.64596557617195	-1328.853515625	243.6808624267578	29.6453285217286	-1430.682861328125	144.0935821533203	456.1078491210938	-1000.176086425781	217.9351043701172	481.9326477050782	-981.8352661132812	203.9275970458984	438.2173461914063	-1002.237365722656	260.8283996582031	295.6275024414063	-991.93994140625	260.1194152832031	217.3342285156251	-1001.513427734375	222.0114898681641	248.6990051269532	-1005.558715820312	79.71858978271484	66.3435134887696	-1117.536987304688	289.8780517578125	45.93627548217781	-1106.053344726562	237.3037261962891	39.90144348144538	-1004.251831054688	428.3087158203125	827.2916870117189	-1207.065795898438	350.6217956542969	701.9774780273439	-1220.27734375	393.6559448242188	903.4545288085939	-1370.916870117188	384.9561462402344	762.3849487304689	-1468.812744140625	373.5697021484375	704.7896118164064	-1498.088134765625	399.6043701171875	700.4714355468751	-1454.263305664062	384.4013671875	497.9204406738282	-1515.792236328125	334.9854431152344	441.7481079101564	-1541.47021484375	379.4906921386719	436.5625305175782	-1518.412231445312	376.803466796875	329.4806213378907	-1519.606567382812	364.5588684082031	330.5356445312501	-1441.579223632812	405.0965576171875	894.9179687500001	-1045.157104492188	394.1524963378906	754.7637939453126	-961.5694580078125	408.6123352050781	691.8302612304689	-968.3252563476562	383.4879150390625	700.4694213867188	-923.5989379882812	381.4086303710938	476.6299133300782	-919.6111450195312	427.536376953125	413.4850769042969	-935.4739379882812	380.6247863769531	413.7052612304688	-919.2994384765625	399.7349853515625	323.2743225097657	-929.3389282226562	375.0569152832031	314.9497680664063	-1005.984619140625	
384	1.915	1214.248168945312	39.24971771240249	-2269.224609375	1226.858032226562	29.84726524353029	-248.7821807861328	606.2415771484375	1068.443969726562	-1194.610473632812	562.4410400390625	1103.046020507812	-1131.384155273438	567.550048828125	1099.21826171875	-1266.955200195312	341.570556640625	1003.005432128906	-1201.153686523438	206.2655029296875	926.6619262695314	-1203.22998046875	181.1204071044922	911.1002197265626	-1226.374755859375	171.2745513916016	906.1521606445314	-1177.44482421875	129.2112884521484	871.2772827148439	-1215.321044921875	89.93320465087891	835.0900268554689	-1213.412963867188	51.91885375976562	841.7822265625001	-1225.276000976562	52.15990447998047	836.6303710937501	-1174.372192382812	2.39551830291748	803.2574462890626	-1203.938720703125	-94.14659881591797	699.6994628906251	-1229.388671875	-89.66726684570312	694.9238891601564	-1178.442504882812	-116.2924728393555	641.2421875000001	-1206.800537109375	143.9382781982422	464.6860961914064	-1429.078125	172.5120544433594	394.4382324218751	-1406.865966796875	197.565673828125	434.8634033203126	-1424.539794921875	259.1119689941406	278.755096435547	-1442.548950195312	189.4105987548828	242.4011840820313	-1429.083740234375	235.5369567871094	222.8656005859376	-1430.506103515625	78.91988372802734	71.28392028808602	-1320.159790039062	294.895263671875	46.64814758300789	-1328.84765625	243.6904602050781	29.63356399536142	-1430.661743164062	143.8389892578125	456.1843872070313	-1000.174255371094	217.6755523681641	482.0191955566407	-981.8269653320312	203.6793670654297	438.3068847656251	-1002.241943359375	260.6780090332031	295.6828308105469	-991.9371948242188	260.0499877929688	217.3470306396485	-1001.568542480469	221.8922424316406	248.7262573242188	-1005.552429199219	79.7052001953125	66.31656646728523	-1117.524780273438	289.87158203125	45.94904708862312	-1106.048217773438	237.2998504638672	39.90388870239264	-1004.252258300781	427.9919738769531	827.4583129882814	-1207.012084960938	350.3602600097656	702.0901489257814	-1220.18408203125	393.3450927734375	903.5953369140626	-1370.858032226562	384.7510681152344	762.5149536132814	-1468.715576171875	373.33837890625	704.9265747070314	-1497.983032226562	399.4274291992188	700.6253662109376	-1454.1630859375	384.3670654296875	498.0797424316407	-1515.7060546875	334.9886169433594	441.8939819335939	-1541.4267578125	379.496337890625	436.7195129394532	-1518.370239257812	376.8691711425781	329.6143798828126	-1519.638793945312	364.6207580566406	330.6810302734376	-1441.61083984375	404.7699584960938	895.0905151367189	-1045.12451171875	393.8728332519531	754.9136352539064	-961.576904296875	408.3472290039062	691.9967041015626	-968.3624877929688	383.223876953125	700.5897216796875	-923.622314453125	381.1645812988281	476.7416381835938	-919.753662109375	427.2970886230469	413.6075439453126	-935.6392211914062	380.3917236328125	413.8157043457032	-919.4732055664062	399.5091552734375	323.3727111816407	-929.5701904296875	374.8792724609375	315.1362304687501	-1006.217590332031	
385	1.92	1214.248168945312	39.24938201904311	-2269.224609375	1226.85791015625	29.84741401672365	-248.7816772460938	605.7310791015625	1068.796997070312	-1194.567138671875	561.890380859375	1103.35546875	-1131.359619140625	567.015869140625	1099.528564453125	-1266.9267578125	341.1676940917969	1003.145812988281	-1201.11962890625	205.9131927490234	926.7667236328126	-1203.198974609375	180.7726898193359	911.1980590820314	-1226.344360351562	170.9302062988281	906.2512207031251	-1177.408081054688	128.8728637695312	871.3606567382814	-1215.2841796875	89.59873199462891	835.1638793945314	-1213.40283203125	51.61087799072266	841.8904418945314	-1225.242919921875	51.84871292114258	836.7431640625001	-1174.34619140625	2.092729568481445	803.3585815429689	-1203.89990234375	-94.45553588867188	699.7565307617189	-1229.343994140625	-89.96898651123047	694.9854125976564	-1178.399780273438	-116.5867614746094	641.2978515625001	-1206.760864257812	143.7072296142578	464.7754516601564	-1429.014770507812	172.2796478271484	394.555389404297	-1406.797119140625	197.3272552490234	434.9832153320314	-1424.468017578125	258.9669189453125	278.832733154297	-1442.485229492188	189.2919158935547	242.429183959961	-1429.027099609375	235.4299468994141	222.9284820556641	-1430.447021484375	78.90419769287109	71.2512741088868	-1320.155517578125	294.8877258300781	46.65055847167977	-1328.841186523438	243.6998901367188	29.62248420715341	-1430.640258789062	143.5847473144531	456.2544555664063	-1000.180603027344	217.4160461425781	482.1000366210938	-981.8259887695312	203.4314270019531	438.3911743164063	-1002.255676269531	260.5276489257812	295.7382507324219	-991.942626953125	259.9817199707031	217.3621826171876	-1001.621704101562	221.7739715576172	248.7541656494141	-1005.549865722656	79.6917724609375	66.28842163085945	-1117.513549804688	289.8648986816406	45.9608459472657	-1106.04248046875	237.2979125976562	39.90547943115241	-1004.252746582031	427.6734008789062	827.6203613281251	-1206.958984375	350.0948791503906	702.1991577148439	-1220.091552734375	393.0316467285156	903.7316894531251	-1370.799438476562	384.5491027832031	762.6365356445314	-1468.610717773438	373.1412963867188	705.0531005859376	-1497.866821289062	399.2464904785156	700.7680664062501	-1454.053100585938	384.3219299316406	498.2318420410157	-1515.615478515625	334.9793395996094	442.034637451172	-1541.382568359375	379.489013671875	436.8679199218751	-1518.325317382812	376.9168701171875	329.7396545410157	-1519.667236328125	364.6646423339844	330.8183898925782	-1441.640380859375	404.4402465820312	895.2598266601564	-1045.09375	393.5964965820312	755.0608520507814	-961.58544921875	408.0848388671875	692.1555786132814	-968.4030151367188	382.9635009765625	700.705810546875	-923.6491088867188	380.9205322265625	476.8519897460938	-919.8941040039062	427.0564880371094	413.7279968261719	-935.804443359375	380.1594848632812	413.9244079589844	-919.6434936523438	399.2828674316406	323.4680175781251	-929.799560546875	374.7076721191406	315.3236083984376	-1006.436584472656	
